<?xml version="1.0" encoding="UTF-8"?>
<svg width="47px" height="36px" viewBox="0 0 47 36" version="1.1" xmlns="http://www.w3.org/2000/svg" xmlns:xlink="http://www.w3.org/1999/xlink">
    <!-- Generator: Sketch 63.1 (92452) - https://sketch.com -->
    <title>dark/game_icon_big_inactive_1</title>
    <desc>Created with Sketch.</desc>
    <g id="Design" stroke="none" stroke-width="1" fill="none" fill-rule="evenodd" opacity="0.200000003">
        <g id="Artboard" transform="translate(-163.000000, -489.000000)" stroke="#FFFFFF">
            <g id="dark/game_icon_big_inactive_1" transform="translate(164.000000, 490.000000)">
                <polyline id="Path" stroke-linejoin="round" points="22.4 -2.30926389e-14 7.46666667 -2.30926389e-14 2.66453526e-14 10.5 22.4 10.5"></polyline>
                <polyline id="Path-Copy" stroke-linejoin="round" transform="translate(33.600000, 5.250000) scale(-1, 1) translate(-33.600000, -5.250000) " points="44.8 -2.30926389e-14 29.8666667 -2.30926389e-14 22.4 10.5 44.8 10.5"></polyline>
                <line x1="22.4" y1="35" x2="2.66453526e-14" y2="10.5" id="Path"></line>
                <line x1="44.8" y1="35" x2="22.4" y2="10.5" id="Path-Copy-2" transform="translate(33.600000, 22.750000) scale(-1, 1) translate(-33.600000, -22.750000) "></line>
                <line x1="7.46666667" y1="0" x2="22.4" y2="35" id="Path-3"></line>
                <line x1="22.4" y1="0" x2="37.3333333" y2="35" id="Path-3-Copy" transform="translate(29.866667, 17.500000) scale(-1, 1) translate(-29.866667, -17.500000) "></line>
                <line x1="22.4" y1="-2.30926389e-14" x2="12.2666667" y2="10.5" id="Path-4"></line>
                <line x1="32.5333333" y1="-2.30926389e-14" x2="22.4" y2="10.5" id="Path-4-Copy" transform="translate(27.466667, 5.250000) scale(-1, 1) translate(-27.466667, -5.250000) "></line>
            </g>
        </g>
    </g>
</svg>