<?xml version="1.0" encoding="UTF-8"?>
<svg width="22px" height="22px" viewBox="0 0 22 22" version="1.1" xmlns="http://www.w3.org/2000/svg" xmlns:xlink="http://www.w3.org/1999/xlink">
    <!-- Generator: Sketch 63.1 (92452) - https://sketch.com -->
    <title>dark/game_icon_small_4</title>
    <desc>Created with Sketch.</desc>
    <g id="Design" stroke="none" stroke-width="1" fill="none" fill-rule="evenodd" opacity="0.200000003">
        <g id="Artboard" transform="translate(-292.000000, -367.000000)" stroke="#FFFFFF">
            <g id="dark/game_icon_small_4" transform="translate(291.000000, 368.000000)">
                <rect id="Rectangle" x="7.82461369" y="0" width="14.3478261" height="20" rx="3"></rect>
                <path d="M14.4123516,3.86264023 C14.1763401,3.61653248 13.8561732,3.47826087 13.5223241,3.47826087 C13.188475,3.47826087 12.8683082,3.61653248 12.6322967,3.86264023 L12.3897699,4.11542323 L12.1472431,3.86264023 C11.6556945,3.3503045 10.8587368,3.3503045 10.3671882,3.86264024 C9.87563959,4.37497599 9.87563959,5.20563634 10.3671882,5.71797209 L10.6097149,5.9707551 L12.3897699,7.82608696 L14.1698248,5.9707551 L14.4123516,5.71797209 C14.648474,5.47197984 14.7811354,5.13827342 14.7811354,4.79030616 C14.7811354,4.4423389 14.648474,4.10863248 14.4123516,3.86264023 Z" id="Path" stroke-linecap="round" stroke-linejoin="round"></path>
                <path d="M19.6297429,12.5582924 C19.3937314,12.3121847 19.0735645,12.173913 18.7397154,12.173913 C18.4058664,12.173913 18.0856995,12.3121847 17.849688,12.5582924 L17.6071612,12.8110754 L17.3646344,12.5582924 C16.8730858,12.0459567 16.0761281,12.0459567 15.5845795,12.5582924 C15.0930309,13.0706282 15.0930309,13.9012885 15.5845795,14.4136243 L15.8271062,14.6664073 L17.6071612,16.5217391 L19.3872161,14.6664073 L19.6297429,14.4136243 C19.8658653,14.167632 19.9985267,13.8339256 19.9985267,13.4859583 C19.9985267,13.1379911 19.8658653,12.8042847 19.6297429,12.5582924 Z" id="Path" stroke-linecap="round" stroke-linejoin="round" transform="translate(17.607222, 14.347826) scale(1, -1) translate(-17.607222, -14.347826) "></path>
                <path d="M5.01715573,4.34232779 C3.31826072,5.31715005 2.17391304,7.14904937 2.17391304,9.24822542 C2.17391304,12.3698349 4.7044775,14.9003993 7.82608696,14.9003993 C8.86342704,14.9003993 9.83549831,14.6209503 10.6711267,14.1332264" id="Path" transform="translate(6.422520, 9.621364) rotate(-330.000000) translate(-6.422520, -9.621364) "></path>
                <path d="M5.99044113,6.29845405 C4.87915298,6.93571341 4.13054075,8.13375682 4.13054075,9.50664799 C4.13054075,11.5477003 5.78514059,13.2023002 7.82619293,13.2023002 C8.50141039,13.2023002 9.13433421,13.0212195 9.67905109,12.7049715" id="Path" transform="translate(6.904796, 9.750377) rotate(-330.000000) translate(-6.904796, -9.750377) "></path>
                <line x1="4.34635282" y1="14.3478261" x2="5.65070065" y2="13.0434783" id="Path-6"></line>
                <line x1="5.65070065" y1="6.95652174" x2="4.34635282" y2="5.65217391" id="Path-7"></line>
            </g>
        </g>
    </g>
</svg>