<?xml version="1.0" encoding="UTF-8"?>
<svg width="16px" height="17px" viewBox="0 0 16 17" version="1.1" xmlns="http://www.w3.org/2000/svg" xmlns:xlink="http://www.w3.org/1999/xlink">
    <!-- Generator: Sketch 63.1 (92452) - https://sketch.com -->
    <title>dark/header_logo</title>
    <desc>Created with Sketch.</desc>
    <g id="Design" stroke="none" stroke-width="1" fill="none" fill-rule="evenodd">
        <g id="Artboard" transform="translate(-162.000000, -81.000000)" fill="#FFFFFF" fill-rule="nonzero">
            <path d="M170.966396,91.9621857 L172.11632,95.4457771 L174.06668,94.0816523 L171.090407,92.0636495 C171.045312,92.0298282 171.000217,91.9960069 170.966396,91.9621857 Z M164.450164,82.6613347 C163.424252,88.3996779 163.086039,93.0895615 163.649727,93.9012722 C164.25851,94.7806254 165.261874,95.2992183 166.321608,95.2992183 C166.986759,95.2992183 167.61809,95.0962906 168.170504,94.7242566 C169.072405,94.1041998 169.590998,93.0782878 169.56845,91.9847332 C169.557176,91.6465204 169.805199,91.3534027 170.143412,91.2970339 C170.391434,91.2519389 170.639457,91.3534027 170.786016,91.5337828 C170.774742,91.4210452 170.79729,91.3083077 170.853659,91.1955701 C171.000217,90.8911786 171.33843,90.733346 171.665369,90.8348098 C171.969761,90.9249999 172.274152,90.9700949 172.589817,90.9700949 C173.254969,90.9700949 173.8863,90.7671672 174.438714,90.3951332 C175.148961,89.8990878 175.633732,89.1550197 175.791565,88.3094878 C175.949397,87.4639559 175.757744,86.5958765 175.261698,85.8743559 C174.686737,85.0513716 170.177233,83.721068 164.450164,82.6613347 Z M171.755559,97.227031 C171.687917,97.227031 171.609,97.2157572 171.541358,97.1932097 C171.33843,97.1255672 171.169324,96.9677345 171.101681,96.7535331 L170.312518,94.3634963 C169.974305,94.938458 169.512081,95.4570509 168.93712,95.8516324 C168.15923,96.3927729 167.246056,96.6746168 166.310334,96.6746168 C164.788376,96.6746168 163.367883,95.9305487 162.511077,94.6791615 C162.150317,94.1492949 161.721914,92.9091814 162.240507,88.1967502 C162.511077,85.7841659 162.916932,83.3603077 163.131134,82.1991106 C162.995849,81.9736354 162.995849,81.6917914 163.131134,81.4663163 C163.21005,81.3535787 163.311514,81.2633886 163.435525,81.2070198 C163.525715,81.1168298 163.649727,81.0491872 163.785012,81.0153659 C164.044308,80.9589971 164.314878,81.060461 164.472711,81.2746624 C165.633908,81.4888638 168.046493,81.9510879 170.402708,82.5485971 C175.002402,83.721068 176.01704,84.5553262 176.3778,85.0851928 C177.076773,86.0998311 177.347344,87.3286708 177.121868,88.5462368 C176.896393,89.7638027 176.219968,90.8122623 175.205329,91.5225091 C174.754379,91.8381743 174.24706,92.0636495 173.728467,92.1989346 L175.65628,93.5066906 C175.847934,93.630702 175.960671,93.8449034 175.960671,94.0703786 C175.960671,94.2958537 175.847934,94.5100551 175.667554,94.6340665 L172.150141,97.1030197 C172.037403,97.181936 171.890844,97.227031 171.755559,97.227031 Z" id="dark/header_logo"></path>
        </g>
    </g>
</svg>