<?xml version="1.0" encoding="UTF-8"?>
<svg width="26px" height="21px" viewBox="0 0 26 21" version="1.1" xmlns="http://www.w3.org/2000/svg" xmlns:xlink="http://www.w3.org/1999/xlink">
    <!-- Generator: Sketch 63.1 (92452) - https://sketch.com -->
    <title>dark/nav_item_3</title>
    <desc>Created with Sketch.</desc>
    <g id="Design" stroke="none" stroke-width="1" fill="none" fill-rule="evenodd">
        <g id="Artboard" transform="translate(-254.000000, -151.000000)" stroke="#FFFFFF">
            <g id="dark/nav_item_3" transform="translate(255.000000, 152.000000)">
                <rect id="Rectangle" x="0" y="0" width="24" height="19" rx="3"></rect>
                <path d="M7.41382487,3.38437936 C7.17781333,3.13827161 6.85764648,3 6.52379739,3 C6.18994831,3 5.86978146,3.13827161 5.63376992,3.38437936 L5.39124315,3.63716237 L5.14871639,3.38437936 C4.65716778,2.87204363 3.86021005,2.87204363 3.36866145,3.38437937 C2.87711285,3.89671512 2.87711285,4.72737547 3.36866144,5.23971122 L3.6111882,5.49249423 L5.39124315,7.34782609 L7.1712981,5.49249423 L7.41382487,5.23971122 C7.64994722,4.99371897 7.7826087,4.66001255 7.7826087,4.31204529 C7.7826087,3.96407803 7.64994722,3.63037161 7.41382487,3.38437936 Z" id="Path" stroke-linecap="round" stroke-linejoin="round"></path>
                <path d="M20.4138249,11.3843794 C20.1778133,11.1382716 19.8576465,11 19.5237974,11 C19.1899483,11 18.8697815,11.1382716 18.6337699,11.3843794 L18.3912432,11.6371624 L18.1487164,11.3843794 C17.6571678,10.8720436 16.86021,10.8720436 16.3686615,11.3843794 C15.8771129,11.8967151 15.8771128,12.7273755 16.3686614,13.2397112 L16.6111882,13.4924942 L18.3912432,15.3478261 L20.1712981,13.4924942 L20.4138249,13.2397112 C20.6499472,12.993719 20.7826087,12.6600126 20.7826087,12.3120453 C20.7826087,11.964078 20.6499472,11.6303716 20.4138249,11.3843794 Z" id="Path-Copy-3" stroke-linecap="round" stroke-linejoin="round" transform="translate(18.391304, 13.173913) scale(1, -1) translate(-18.391304, -13.173913) "></path>
            </g>
        </g>
    </g>
</svg>