<?xml version="1.0" encoding="UTF-8"?>
<svg width="37px" height="37px" viewBox="0 0 37 37" version="1.1" xmlns="http://www.w3.org/2000/svg" xmlns:xlink="http://www.w3.org/1999/xlink">
    <!-- Generator: Sketch 63.1 (92452) - https://sketch.com -->
    <title>light/game_icon_big_inactive_4</title>
    <desc>Created with Sketch.</desc>
    <g id="Design" stroke="none" stroke-width="1" fill="none" fill-rule="evenodd" opacity="0.5">
        <g id="Artboard" transform="translate(-948.000000, -483.000000)" stroke="#242735">
            <g id="light/game_icon_big_inactive_4" transform="translate(945.000000, 484.000000)">
                <rect id="Rectangle" x="13.693074" y="0" width="25.1086957" height="35" rx="3"></rect>
                <path d="M25.2216153,6.7596204 C24.8085951,6.32893184 24.2483031,6.08695652 23.6640672,6.08695652 C23.0798313,6.08695652 22.5195393,6.32893184 22.1065191,6.7596204 L21.6820973,7.20199066 L21.2576755,6.7596204 C20.3974654,5.86303287 19.0027894,5.86303288 18.1425793,6.75962043 C17.2823693,7.65620797 17.2823693,9.1098636 18.1425793,10.0064512 L18.5670011,10.4488214 L21.6820973,13.6956522 L24.7971935,10.4488214 L25.2216153,10.0064512 C25.6348294,9.57596472 25.866987,8.99197848 25.866987,8.38303578 C25.866987,7.77409308 25.6348294,7.19010684 25.2216153,6.7596204 Z" id="Path" stroke-linecap="round" stroke-linejoin="round"></path>
                <path d="M34.3520501,21.9770117 C33.9390299,21.5463231 33.3787379,21.3043478 32.794502,21.3043478 C32.2102661,21.3043478 31.6499741,21.5463231 31.2369539,21.9770117 L30.8125321,22.419382 L30.3881102,21.9770117 C29.5279002,21.0804242 28.1332242,21.0804242 27.2730141,21.9770117 C26.4128041,22.8735993 26.4128041,24.3272549 27.2730141,25.2238425 L27.6974359,25.6662127 L30.8125321,28.9130435 L33.9276282,25.6662127 L34.3520501,25.2238425 C34.7652642,24.793356 34.9974218,24.2093698 34.9974218,23.6004271 C34.9974218,22.9914844 34.7652642,22.4074981 34.3520501,21.9770117 Z" id="Path" stroke-linecap="round" stroke-linejoin="round" transform="translate(30.812639, 25.108696) scale(1, -1) translate(-30.812639, -25.108696) "></path>
                <path d="M8.78002253,7.59907364 C5.80695626,9.30501258 3.80434783,12.5108364 3.80434783,16.1843945 C3.80434783,21.647211 8.23283563,26.0756988 13.6956522,26.0756988 C15.5109973,26.0756988 17.212122,25.586663 18.6744717,24.7331461" id="Path" transform="translate(11.239410, 16.837386) rotate(-330.000000) translate(-11.239410, -16.837386) "></path>
                <path d="M10.483272,11.0222946 C8.53851771,12.1374985 7.22844631,14.2340744 7.22844631,16.636634 C7.22844631,20.2084756 10.123996,23.1040253 13.6958376,23.1040253 C14.8774682,23.1040253 15.9850849,22.7871342 16.9383394,22.2337001" id="Path" transform="translate(12.083393, 17.063160) rotate(-330.000000) translate(-12.083393, -17.063160) "></path>
                <line x1="7.60611744" y1="25.1086957" x2="9.88872614" y2="22.826087" id="Path-6"></line>
                <line x1="9.88872614" y1="12.173913" x2="7.60611744" y2="9.89130435" id="Path-7"></line>
            </g>
        </g>
    </g>
</svg>