<?xml version="1.0" encoding="UTF-8"?>
<svg width="16px" height="17px" viewBox="0 0 16 17" version="1.1" xmlns="http://www.w3.org/2000/svg" xmlns:xlink="http://www.w3.org/1999/xlink">
    <!-- Generator: Sketch 63.1 (92452) - https://sketch.com -->
    <title>light/header_logo</title>
    <desc>Created with Sketch.</desc>
    <g id="Design" stroke="none" stroke-width="1" fill="none" fill-rule="evenodd">
        <g id="Artboard" transform="translate(-755.000000, -81.000000)" fill="#242735" fill-rule="nonzero">
            <path d="M763.966396,91.9621857 L765.11632,95.4457771 L767.06668,94.0816523 L764.090407,92.0636495 C764.045312,92.0298282 764.000217,91.9960069 763.966396,91.9621857 Z M757.450164,82.6613347 C756.424252,88.3996779 756.086039,93.0895615 756.649727,93.9012722 C757.25851,94.7806254 758.261874,95.2992183 759.321608,95.2992183 C759.986759,95.2992183 760.61809,95.0962906 761.170504,94.7242566 C762.072405,94.1041998 762.590998,93.0782878 762.56845,91.9847332 C762.557176,91.6465204 762.805199,91.3534027 763.143412,91.2970339 C763.391434,91.2519389 763.639457,91.3534027 763.786016,91.5337828 C763.774742,91.4210452 763.79729,91.3083077 763.853659,91.1955701 C764.000217,90.8911786 764.33843,90.733346 764.665369,90.8348098 C764.969761,90.9249999 765.274152,90.9700949 765.589817,90.9700949 C766.254969,90.9700949 766.8863,90.7671672 767.438714,90.3951332 C768.148961,89.8990878 768.633732,89.1550197 768.791565,88.3094878 C768.949397,87.4639559 768.757744,86.5958765 768.261698,85.8743559 C767.686737,85.0513716 763.177233,83.721068 757.450164,82.6613347 Z M764.755559,97.227031 C764.687917,97.227031 764.609,97.2157572 764.541358,97.1932097 C764.33843,97.1255672 764.169324,96.9677345 764.101681,96.7535331 L763.312518,94.3634963 C762.974305,94.938458 762.512081,95.4570509 761.93712,95.8516324 C761.15923,96.3927729 760.246056,96.6746168 759.310334,96.6746168 C757.788376,96.6746168 756.367883,95.9305487 755.511077,94.6791615 C755.150317,94.1492949 754.721914,92.9091814 755.240507,88.1967502 C755.511077,85.7841659 755.916932,83.3603077 756.131134,82.1991106 C755.995849,81.9736354 755.995849,81.6917914 756.131134,81.4663163 C756.21005,81.3535787 756.311514,81.2633886 756.435525,81.2070198 C756.525715,81.1168298 756.649727,81.0491872 756.785012,81.0153659 C757.044308,80.9589971 757.314878,81.060461 757.472711,81.2746624 C758.633908,81.4888638 761.046493,81.9510879 763.402708,82.5485971 C768.002402,83.721068 769.01704,84.5553262 769.3778,85.0851928 C770.076773,86.0998311 770.347344,87.3286708 770.121868,88.5462368 C769.896393,89.7638027 769.219968,90.8122623 768.205329,91.5225091 C767.754379,91.8381743 767.24706,92.0636495 766.728467,92.1989346 L768.65628,93.5066906 C768.847934,93.630702 768.960671,93.8449034 768.960671,94.0703786 C768.960671,94.2958537 768.847934,94.5100551 768.667554,94.6340665 L765.150141,97.1030197 C765.037403,97.181936 764.890844,97.227031 764.755559,97.227031 Z" id="light/header_logo"></path>
        </g>
    </g>
</svg>