<?xml version="1.0" encoding="UTF-8"?>
<svg width="21px" height="22px" viewBox="0 0 21 22" version="1.1" xmlns="http://www.w3.org/2000/svg" xmlns:xlink="http://www.w3.org/1999/xlink">
    <!-- Generator: Sketch 63.1 (92452) - https://sketch.com -->
    <title>light/game_icon_small_3</title>
    <desc>Created with Sketch.</desc>
    <g id="Design" stroke="none" stroke-width="1" fill="none" fill-rule="evenodd">
        <g id="Artboard" transform="translate(-841.000000, -367.000000)" stroke="#0097FF">
            <g id="light/game_icon_small_3" transform="translate(842.000000, 368.000000)">
                <rect id="Rectangle" x="1.77635684e-14" y="2.27272727" width="15.9090909" height="17.7272727" rx="3"></rect>
                <rect id="Rectangle" x="2.27272727" y="4.54545455" width="11.3636364" height="5.90909091" rx="1"></rect>
                <line x1="5.90909091" y1="10.4545455" x2="5.90909091" y2="4.54545455" id="Path-2"></line>
                <line x1="10" y1="10.4545455" x2="10" y2="4.54545455" id="Path-2-Copy"></line>
                <circle id="Oval" cx="5.22727273" cy="14.7727273" r="1.59090909"></circle>
                <circle id="Oval-Copy-5" cx="10.6818182" cy="14.7727273" r="1.59090909"></circle>
                <circle id="Oval-Copy-6" cx="18.1818182" cy="6.81818182" r="1"></circle>
                <path d="M4.72727273,1.0658141e-14 L11.1818182,1.0658141e-14 C12.2863877,1.04552349e-14 13.1818182,0.8954305 13.1818182,2 L13.1818182,2.27272727 L13.1818182,2.27272727 L2.72727273,2.27272727 L2.72727273,2 C2.72727273,0.8954305 3.62270323,1.08610472e-14 4.72727273,1.0658141e-14 Z" id="Rectangle"></path>
                <path d="M15.9090909,15.9090909 C17.1642835,15.9090909 18.1818182,14.8915562 18.1818182,13.6363636 L18.1818182,7.72727273 L18.1818182,7.72727273" id="Path-5"></path>
            </g>
        </g>
    </g>
</svg>