<?xml version="1.0" encoding="UTF-8"?>
<svg width="28px" height="21px" viewBox="0 0 28 21" version="1.1" xmlns="http://www.w3.org/2000/svg" xmlns:xlink="http://www.w3.org/1999/xlink">
    <!-- Generator: Sketch 63.1 (92452) - https://sketch.com -->
    <title>light/game_icon_small_1</title>
    <desc>Created with Sketch.</desc>
    <g id="Design" stroke="none" stroke-width="1" fill="none" fill-rule="evenodd">
        <g id="Artboard" transform="translate(-754.000000, -367.000000)" stroke="#0097FF">
            <g id="light/game_icon_small_1" transform="translate(755.000000, 368.000000)">
                <polyline id="Path" stroke-linejoin="round" points="12.8 -2.30926389e-14 4.26666667 -2.30926389e-14 2.66453526e-14 6 12.8 6"></polyline>
                <polyline id="Path-Copy" stroke-linejoin="round" transform="translate(19.200000, 3.000000) scale(-1, 1) translate(-19.200000, -3.000000) " points="25.6 -2.30926389e-14 17.0666667 -2.30926389e-14 12.8 6 25.6 6"></polyline>
                <line x1="12.8" y1="20" x2="2.66453526e-14" y2="6" id="Path"></line>
                <line x1="25.6" y1="20" x2="12.8" y2="6" id="Path-Copy-2" transform="translate(19.200000, 13.000000) scale(-1, 1) translate(-19.200000, -13.000000) "></line>
                <line x1="4.26666667" y1="0" x2="12.8" y2="20" id="Path-3"></line>
                <line x1="12.8" y1="0" x2="21.3333333" y2="20" id="Path-3-Copy" transform="translate(17.066667, 10.000000) scale(-1, 1) translate(-17.066667, -10.000000) "></line>
                <line x1="12.8" y1="-2.30926389e-14" x2="7.00952381" y2="6" id="Path-4"></line>
                <line x1="18.5904762" y1="-2.30926389e-14" x2="12.8" y2="6" id="Path-4-Copy" transform="translate(15.695238, 3.000000) scale(-1, 1) translate(-15.695238, -3.000000) "></line>
            </g>
        </g>
    </g>
</svg>