<?xml version="1.0" encoding="UTF-8"?>
<svg width="15px" height="22px" viewBox="0 0 15 22" version="1.1" xmlns="http://www.w3.org/2000/svg" xmlns:xlink="http://www.w3.org/1999/xlink">
    <!-- Generator: Sketch 63.1 (92452) - https://sketch.com -->
    <title>light/game_icon_small_6</title>
    <desc>Created with Sketch.</desc>
    <g id="Design" stroke="none" stroke-width="1" fill="none" fill-rule="evenodd">
        <g id="Artboard" transform="translate(-974.000000, -367.000000)" stroke="#0097FF">
            <g id="light/game_icon_small_6" transform="translate(975.000000, 368.000000)">
                <path d="M6.52173913,2.17391304 C10.1235962,2.17391304 13.0434783,5.09379511 13.0434783,8.69565217 L13.0434783,18 C13.0434783,19.1045695 12.1480478,20 11.0434783,20 L2,20 C0.8954305,20 1.3527075e-16,19.1045695 0,18 L0,8.69565217 C-4.41100272e-16,5.09379511 2.91988207,2.17391304 6.52173913,2.17391304 Z" id="Rectangle"></path>
                <line x1="6.45652174" y1="6.52173913" x2="6.45652174" y2="15.6405797" id="Path" stroke-linecap="round" stroke-linejoin="round"></line>
                <path d="M8.57608696,8.17971014 L5.39673913,8.17971014 C4.57731665,8.17971014 3.91304348,8.82922169 3.91304348,9.63043478 C3.91304348,10.4316479 4.57731665,11.0811594 5.39673913,11.0811594 L7.51630435,11.0811594 C8.33572682,11.0811594 8.99999997,11.730671 8.99999997,12.5318841 C8.99999997,13.3330971 8.33572682,13.9826087 7.51630435,13.9826087 L3.91304348,13.9826087" id="Path" stroke-linecap="round" stroke-linejoin="round"></path>
                <polygon id="Path-8" stroke-linejoin="round" points="6.52173913 2.17391304 4.34782609 -2.48593416e-14 8.69565217 -3.08931624e-14"></polygon>
            </g>
        </g>
    </g>
</svg>