<?xml version="1.0" encoding="UTF-8"?>
<svg width="26px" height="21px" viewBox="0 0 26 21" version="1.1" xmlns="http://www.w3.org/2000/svg" xmlns:xlink="http://www.w3.org/1999/xlink">
    <!-- Generator: Sketch 63.1 (92452) - https://sketch.com -->
    <title>light/nav_item_2</title>
    <desc>Created with Sketch.</desc>
    <g id="Design" stroke="none" stroke-width="1" fill="none" fill-rule="evenodd">
        <g id="Artboard" transform="translate(-796.000000, -151.000000)" stroke="#242735">
            <g id="light/nav_item_2" transform="translate(797.000000, 151.000000)">
                <rect id="Rectangle" x="0" y="5" width="24" height="15" rx="3"></rect>
                <path d="M15.3831252,9.61885077 C14.9883423,9.22261729 14.4527905,9 13.894352,9 C13.3359135,9 12.8003617,9.22261729 12.4055788,9.61885077 L11.9998976,10.0258314 L11.5942165,9.61885077 C10.7719897,8.79399024 9.43889681,8.79399025 8.61667006,9.61885079 C7.79444332,10.4437113 7.79444331,11.7810745 8.61667004,12.6059351 L9.02235118,13.0129157 L11.9998976,16 L14.9774441,13.0129157 L15.3831252,12.6059351 C15.7780935,12.2098875 16,11.6726202 16,11.1123929 C16,10.5521656 15.7780935,10.0148983 15.3831252,9.61885077 Z" id="Path" stroke-linecap="round" stroke-linejoin="round"></path>
                <polyline id="Path-12" stroke-linecap="round" stroke-linejoin="round" points="7 0 12 5 17 0"></polyline>
            </g>
        </g>
    </g>
</svg>