<?xml version="1.0" encoding="utf-8"?>
<!-- Generator: Adobe Illustrator 24.0.2, SVG Export Plug-In . SVG Version: 6.00 Build 0)  -->
<svg version="1.1" id="Layer_1" focusable="false" xmlns="http://www.w3.org/2000/svg" xmlns:xlink="http://www.w3.org/1999/xlink"
	 x="0px" y="0px" viewBox="0 0 448 512" style="enable-background:new 0 0 448 512;" xml:space="preserve">
<style type="text/css">
	.st0{fill:#FF5757;}
	.st1{fill:#FF9F63;}
	.st2{fill:#00E7FF;}
</style>
<path class="st0" d="M16,132h416c8.8,0,16-7.2,16-16V76c0-8.8-7.2-16-16-16H16C7.2,60,0,67.2,0,76v40C0,124.8,7.2,132,16,132z"/>
<path class="st1" d="M139.1,292H432c8.8,0,16-7.2,16-16v-40c0-8.8-7.2-16-16-16H139.1c-8.8,0-16,7.2-16,16v40
	C123.1,284.8,130.3,292,139.1,292z"/>
<path class="st2" d="M251.5,452H432c8.8,0,16-7.2,16-16v-40c0-8.8-7.2-16-16-16H251.5c-8.8,0-16,7.2-16,16v40
	C235.5,444.8,242.7,452,251.5,452z"/>
<image style="overflow:visible;" width="1440" height="1649" xlink:href="E2246224.jpg"  transform="matrix(0.5069 0 0 0.5069 588.7073 -417.9338)">
</image>
</svg>
